<?xml version="1.0" standalone="no"?><!DOCTYPE svg PUBLIC "-//W3C//DTD SVG 1.1//EN" "http://www.w3.org/Graphics/SVG/1.1/DTD/svg11.dtd"><svg class="icon" width="16px" height="16.00px" viewBox="0 0 1024 1024" version="1.1" xmlns="http://www.w3.org/2000/svg"><path d="M586.666667 85.333333a32 32 0 0 0-28.8 18.005334l-22.954667 47.146666C527.296 150.08 519.744 149.333333 512 149.333333 300.245333 149.333333 127.957333 321.6 127.957333 533.333333c0 80.832 25.258667 155.776 68.074667 217.706667l32.96-68.757333A317.888 317.888 0 0 1 191.957333 533.333333c0-173.802667 139.392-315.370667 312.213334-319.573333L173.866667 892.672A32.021333 32.021333 0 0 0 202.666667 938.666667h42.666666a32 32 0 0 0 28.714667-17.877334L405.333333 661.333333h160v42.666667a10.624 10.624 0 0 0 17.28 8.32l106.730667-85.354667a10.645333 10.645333 0 0 0 0-16.64l-106.666667-85.333333a10.581333 10.581333 0 0 0-11.221333-1.322667 10.773333 10.773333 0 0 0-6.122667 9.664v42.666667H448l106.666667-213.333333v122.026666a53.269333 53.269333 0 0 1 54.677333 7.018667L682.666667 550.378667V263.082667c89.6 56.789333 149.376 156.586667 149.376 270.250666 0 176.448-143.594667 320-320.042667 320-50.133333 0-97.472-11.904-139.733333-32.533333l-29.226667 56.874667A381.226667 381.226667 0 0 0 512 917.333333c211.754667 0 384.042667-172.266667 384.042667-384 0-150.4-87.125333-280.533333-213.376-343.509333V117.333333A32 32 0 0 0 650.666667 85.333333h-64zM682.666667 686.954667l-73.344 58.666666A53.589333 53.589333 0 0 1 576 757.333333c-5.12 0-10.133333-1.002667-15.04-2.453333 5.845333 7.893333 15.125333 13.12 25.706667 13.12h64a32 32 0 0 0 32-32v-49.045333z" fill="#1296db" /></svg>