<?xml version="1.0" standalone="no"?><!DOCTYPE svg PUBLIC "-//W3C//DTD SVG 1.1//EN" "http://www.w3.org/Graphics/SVG/1.1/DTD/svg11.dtd"><svg class="icon" width="200px" height="200.00px" viewBox="0 0 1024 1024" version="1.1" xmlns="http://www.w3.org/2000/svg"><path d="M169.554581 109.667097c-12.453161 16.945548-11.891613 70.95329 1.32129 191.521032l5.84671 53.54529-19.356904 25.963355c-10.867613 14.600258-24.113548 34.188387-29.662967 43.73471-12.221935 20.942452-12.221935 22.792258-5.582452 94.868645l4.525419 48.227097 14.534194 12.750451c22.296774 19.885419 35.014194 33.659871 67.352774 73.926194 54.073806 67.584 89.054968 98.964645 99.658323 151.188645 2.906839 15.095742 5.020903 19.059613 16.68129 30.984258 7.432258 7.696516 14.03871 13.278968 14.864516 12.453161 0.792774-0.792774 4.492387-11.660387 8.192-24.377806l6.903742-23.056516 297.092129-1.32129 7.432258 25.17058c4.228129 13.807484 8.192 25.203613 9.249032 25.203613 0.825806 0 7.168-5.582452 13.807484-12.750451 11.131871-11.131871 11.726452-15.293935 17.738323-34.981162 4.954839-16.185806 13.807484-15.194839 30.753032-47.004903a668.96929 668.96929 0 0 1 121.129291-161.395613l28.077419-27.813161 4.261161-45.056c2.378323-24.675097 4.756645-51.431226 5.54942-59.392 1.32129-12.717419 0.264258-16.945548-6.606452-30.455742-4.261161-8.753548-16.185806-27.317677-26.524903-41.092129-10.339097-13.774452-20.413935-27.813161-22.792258-31.01729-3.699613-5.285161-3.501419-8.720516 0-38.416517 5.84671-49.284129 10.339097-197.896258 5.846709-207.178322-8.753548-17.507097-46.641548-43.470452-124.036129-84.562581-27.053419-14.302968-45.848774-22.792258-46.905806-21.173677-0.561548 1.057032-34.551742 95.793548-102.069678 284.275613H440.980645C372.372645 101.508129 337.820903 6.044903 337.292387 6.044903c-0.792774 0-18.531097 8.984774-39.737806 20.149678-70.788129 36.797935-114.754065 65.403871-128.033033 83.472516z m351.958709 363.619097c86.412387-1.849806 165.821935-8.456258 246.123355-30.191484 43.206194-11.924645 42.677677-12.221935 42.677678 24.377806v57.410065l-31.810065 15.095742c-31.01729 14.336-32.602839 14.864516-54.338064 14.864516-18.266839 0-115.712-9.579355-132.921807-14.864516-3.468387-1.057032-4.789677-4.228129-4.789677-10.867613v-9.249033l-12.453162 1.849807c-10.867613 1.585548-121.889032 2.114065-145.242838 0.528516-7.134968-0.528516-7.927742 0.264258-8.753549 7.927742-0.528516 5.053935-2.642581 9.017806-5.285161 9.810581-16.68129 5.053935-114.39071 14.864516-131.897806 14.864516-19.885419 0-22.792258-0.792774-53.776517-14.864516l-32.867096-15.095742 1.32129-25.434839c1.32129-29.696 2.114065-65.106581 7.134968-65.106581 2.147097 0 18.828387 4.228129 37.392516 9.249033 87.205161 23.882323 184.650323 31.545806 279.485935 29.729032z" fill="#d81e06" /><path d="M357.739355 880.805161c-5.285161 17.507097-10.867613 31.810065-12.221936 31.810065-1.32129 0-11.098839-9.017806-21.966451-20.149678l-19.88542-20.149677-15.095742 24.113548c-8.753548 14.336-14.03871 25.732129-12.981677 27.581936 1.585548 2.642581 66.26271 91.169032 68.90529 94.340129 0.528516 0.825806 6.87071-4.492387 14.302968-11.891613l13.245936-13.01471h265.315096l10.570323 12.453162c5.84671 7.168 11.693419 12.717419 12.750452 12.717419 2.378323 0 71.547871-93.811613 71.547871-97.246968 0-3.171097-27.548903-48.491355-29.696-48.491355-1.057032 0-9.810581 8.984774-19.852388 19.852387-9.810581 10.900645-19.092645 19.885419-20.678193 19.88542-1.585548 0-7.168-14.03871-12.453161-31.281549l-9.282065-30.984258-272.714323-1.32129-9.81058 31.777032z" fill="#d81e06" /></svg>